<svg id="color" enable-background="new 0 0 24 24" height="512" viewBox="0 0 24 24" width="512" xmlns="http://www.w3.org/2000/svg"><path d="m15.75 19.51v3.24h-1.5v-3.24c0-.42.34-.75.75-.75s.75.33.75.75z" fill="#ffcc80"/><path d="m15 20c-1.103 0-2-.897-2-2s.897-2 2-2 2 .897 2 2-.897 2-2 2z" fill="#4caf50"/><path d="m14.25 19.854v2.896h.75v-2.75c-.265 0-.518-.052-.75-.146z" fill="#deb26f"/><path d="m15 16c-1.103 0-2 .897-2 2 0 .838.518 1.557 1.25 1.854.232.094.485.146.75.146z" fill="#429846"/><path d="m6 3.75c-.552 0-1-.448-1-1v-1.75c0-.552.448-1 1-1s1 .448 1 1v1.75c0 .552-.448 1-1 1z" fill="#607d8b"/><path d="m9.25 7h-6.5c-.414 0-.75-.336-.75-.75v-2.5c0-.965.785-1.75 1.75-1.75h4.5c.965 0 1.75.785 1.75 1.75v2.5c0 .414-.336.75-.75.75z" fill="#90a4ae"/><path d="m10.25 5h-8.5c-.96 0-1.75.79-1.75 1.75v16h12v-16c0-.96-.79-1.75-1.75-1.75z" fill="#607d8b"/><g fill="#f5f5f5"><path d="m8 23h-4v-5.25c0-.414.336-.75.75-.75h2.5c.414 0 .75.336.75.75z"/><path d="m7 14h-2c-.55 0-1-.45-1-1s.45-1 1-1h2c.55 0 1 .45 1 1s-.45 1-1 1z"/><path d="m7 10h-2c-.55 0-1-.45-1-1s.45-1 1-1h2c.55 0 1 .45 1 1s-.45 1-1 1z"/></g><path d="m18 24h-17c-.552 0-1-.448-1-1s.448-1 1-1h17c.552 0 1 .448 1 1s-.448 1-1 1z" fill="#90a4ae"/><path d="m20.5 9h-6.5c-1.654 0-3-1.346-3-3 0-1.458 1.045-2.675 2.425-2.945.519-1.778 2.177-3.055 4.075-3.055 1.499 0 2.886.797 3.644 2.062 1.632.299 2.856 1.732 2.856 3.438 0 1.93-1.57 3.5-3.5 3.5z" fill="#2196f3"/><path d="m17.5 0c-1.898 0-3.556 1.277-4.075 3.055-1.38.27-2.425 1.488-2.425 2.945 0 1.654 1.346 3 3 3h3.5z" fill="#1d83d4"/><path d="m6 0c-.552 0-1 .448-1 1v1h1z" fill="#546d79"/><path d="m6 2h-1-1.25c-.965 0-1.75.785-1.75 1.75v1.25h4z" fill="#7d8f97"/><path d="m6 5h-4-.25c-.96 0-1.75.79-1.75 1.75v16h.032c.111-.431.502-.75.968-.75h3v-4.25c0-.414.336-.75.75-.75h1.25v-3h-1c-.55 0-1-.45-1-1s.45-1 1-1h1v-2h-1c-.55 0-1-.45-1-1s.45-1 1-1h1z" fill="#546d79"/><path d="m6 17h-1.25c-.414 0-.75.336-.75.75v4.25h2z" fill="#d5d5d5"/><path d="m6 12h-1c-.55 0-1 .45-1 1s.45 1 1 1h1z" fill="#d5d5d5"/><path d="m6 8h-1c-.55 0-1 .45-1 1s.45 1 1 1h1z" fill="#d5d5d5"/><path d="m6 22h-2-3c-.466 0-.857.319-.969.75-.02.08-.031.164-.031.25 0 .552.448 1 1 1h5z" fill="#7d8f97"/></svg>